PathFileType	4	(X/Y/Z)	TVC_20_Cal_03_0_static_RCNL2025.trc
DataRate	CameraRate	NumFrames	NumMarkers	Units	OrigDataRate	OrigDataStartFrame	OrigNumFrames
100	100	12	27	mm	100	117	133
Frame#	Time	R_Shoulder			L_Shoulder			C7			J_Notch			R_Elbow			L_Elbow			R_Wrist			L_Wrist			R_Asis			L_Asis			R_Psis			L_Psis			Sacral			Thoracic			Sternum			R_Thigh_Lateral			R_Knee_Lateral			R_Shank_Lateral			R_Ankle_Lateral			R_Heel			R_Toe			L_Thigh_Lateral			L_Knee_Lateral			L_Shank_Lateral			L_Ankle_Lateral			L_Heel			L_Toe		
		X1	Y1	Z1	X2	Y2	Z2	X3	Y3	Z3	X4	Y4	Z4	X5	Y5	Z5	X6	Y6	Z6	X7	Y7	Z7	X8	Y8	Z8	X9	Y9	Z9	X10	Y10	Z10	X11	Y11	Z11	X12	Y12	Z12	X13	Y13	Z13	X14	Y14	Z14	X15	Y15	Z15	X16	Y16	Z16	X17	Y17	Z17	X18	Y18	Z18	X19	Y19	Z19	X20	Y20	Z20	X21	Y21	Z21	X22	Y22	Z22	X23	Y23	Z23	X24	Y24	Z24	X25	Y25	Z25	X26	Y26	Z26	X27	Y27	Z27
117	1.16000000	-226.517883	1426.492188	-41.508091	-269.528442	1432.928955	-388.327942	-274.534027	1469.633545	-196.318314	-150.644958	1343.573608	-214.671402	-244.573639	1153.755859	123.002335	-280.308655	1131.252319	-512.519775	-134.780682	923.383392	181.074707	-141.122913	915.791931	-562.470978	-193.973846	1010.788086	-61.373604	-177.468750	1018.906738	-341.841156	-340.901886	1013.795105	-163.524918	-348.688660	1006.990417	-252.066681	-344.795273	1010.392761	-207.795799	-375.960114	1238.317871	-210.142151	-136.064667	1199.469238	-218.930115	-242.301651	680.145325	2.353415	-262.716248	471.142975	-60.011044	-309.666290	313.120941	-16.530624	-316.251984	76.337463	-88.943306	-355.313690	52.328602	-143.686508	-167.554749	36.680218	-81.750420	-230.835556	654.105103	-412.591766	-241.914291	462.831818	-357.226166	-257.244812	316.542847	-398.423584	-280.202911	74.384186	-318.825867	-325.844971	62.437901	-276.926331	-138.129990	38.063858	-294.667664
118	1.17000000	-226.499496	1426.477905	-41.550373	-269.484009	1432.888062	-388.312988	-274.595093	1469.642822	-196.380280	-150.644318	1343.557739	-214.682617	-244.576874	1153.762329	122.984810	-280.248047	1131.258179	-512.563782	-134.783249	923.378448	181.070686	-141.146397	915.794159	-562.604584	-194.075089	1010.802368	-61.412521	-177.474945	1018.929993	-341.891510	-340.961914	1013.822144	-163.564911	-348.704315	1006.921326	-252.068314	-344.833115	1010.371735	-207.816612	-375.960449	1238.317017	-210.141586	-136.239075	1199.480835	-218.943878	-242.159622	680.005859	2.128378	-262.742065	471.138763	-60.034924	-309.663208	313.135529	-16.546024	-316.234924	76.314438	-88.941971	-355.442352	52.364548	-143.494873	-167.553558	36.669922	-81.735130	-230.781494	654.084412	-412.567596	-241.918015	462.822083	-357.218689	-257.226898	316.631287	-398.481201	-280.034363	74.138420	-319.063904	-325.835419	62.394299	-276.940979	-138.137283	38.053047	-294.650513
119	1.18000000	-226.575470	1426.483887	-41.546654	-269.418030	1432.894287	-388.363800	-274.546295	1469.555054	-196.300507	-150.657135	1343.559814	-214.662781	-244.571732	1153.759888	122.987068	-280.227844	1131.218994	-512.590820	-134.809418	923.357880	180.958031	-141.159424	915.831024	-562.686951	-194.138657	1010.740112	-61.375847	-177.487579	1018.886353	-341.921204	-340.928955	1013.731018	-163.636169	-348.698151	1006.908081	-252.090622	-344.813553	1010.319550	-207.863396	-375.963074	1238.301147	-210.139496	-136.268616	1199.451294	-218.946701	-242.181671	680.015625	2.168846	-262.768402	471.128571	-60.019371	-309.704987	313.089020	-16.528845	-316.232910	76.307327	-88.972969	-355.490997	52.388775	-143.452881	-167.555664	36.668289	-81.750206	-230.817703	654.011292	-412.528473	-241.922684	462.824982	-357.204132	-257.264252	316.578857	-398.437286	-280.036041	74.090820	-319.083618	-325.872833	62.337505	-276.907745	-138.196945	38.095497	-294.643372
120	1.19000000	-226.602295	1426.463379	-41.555107	-269.468811	1432.956421	-388.356476	-274.537598	1469.547974	-196.296539	-150.670731	1343.500854	-214.711395	-244.687408	1153.701416	122.936234	-280.230255	1131.293091	-512.588806	-134.808170	923.269104	180.947075	-141.011509	915.818176	-562.572876	-194.129639	1010.702576	-61.398666	-177.472977	1018.941772	-341.897308	-340.965912	1013.760620	-163.591492	-348.701447	1006.843872	-252.203812	-344.833679	1010.302246	-207.897652	-375.931580	1238.297485	-210.199188	-136.217178	1199.389648	-219.021851	-242.292847	680.022156	2.214083	-262.804657	471.107758	-59.997391	-309.715302	313.075989	-16.559235	-316.247131	76.279907	-88.972626	-355.487488	52.383972	-143.460358	-167.467102	36.641659	-81.757301	-230.851105	654.051758	-412.547394	-241.956207	462.814331	-357.206787	-257.244843	316.462494	-398.409485	-279.784851	73.982178	-319.299194	-325.817352	62.362564	-276.887817	-138.190735	38.049767	-294.535370
121	1.20000000	-226.498306	1426.463135	-41.551510	-269.431885	1432.915527	-388.343994	-274.532959	1469.630249	-196.321671	-150.691864	1343.429932	-214.674423	-244.701691	1153.690063	122.940414	-280.226562	1131.286987	-512.595154	-134.904984	923.267212	180.929237	-141.047211	915.869354	-562.723297	-194.129578	1010.719788	-61.383965	-177.462143	1018.913574	-341.925476	-340.987030	1013.873657	-163.545410	-348.726471	1006.889526	-252.184586	-344.856750	1010.381592	-207.864998	-376.042084	1238.360474	-210.201569	-136.278564	1199.352417	-218.972580	-242.450165	680.018738	2.215886	-262.802460	471.108978	-60.012486	-309.777374	313.086121	-16.510880	-316.293640	76.318329	-88.908737	-355.480499	52.376217	-143.463760	-167.550491	36.610760	-81.738251	-230.891357	653.897339	-412.620667	-241.978668	462.808105	-357.201996	-257.223572	316.533600	-398.473206	-280.140686	74.228470	-319.012421	-325.843231	62.391499	-276.937317	-138.124420	38.009502	-294.589081
122	1.21000000	-226.536285	1426.477295	-41.564430	-269.418213	1432.897217	-388.388672	-274.598022	1469.625488	-196.380447	-150.873611	1343.429810	-214.611893	-244.770157	1153.640137	122.880341	-280.110992	1131.284424	-512.652100	-134.993355	923.236694	180.884468	-141.073174	915.853271	-562.799255	-194.123093	1010.718994	-61.381409	-177.484070	1018.870361	-341.921265	-341.005402	1013.768555	-163.676544	-348.768585	1006.859009	-252.265350	-344.886993	1010.313782	-207.970947	-376.038177	1238.309082	-210.219437	-136.431412	1199.296875	-218.927750	-242.491791	679.988586	2.074315	-262.847351	471.166260	-60.021946	-309.835175	313.062775	-16.559471	-316.231659	76.371857	-88.962364	-355.475433	52.445881	-143.402634	-167.575592	36.664368	-81.731819	-230.892029	653.848755	-412.563110	-242.014862	462.794220	-357.191376	-257.247833	316.512054	-398.428589	-280.100891	74.263168	-319.001038	-325.847809	62.394070	-276.941772	-138.224411	38.047211	-294.568268
123	1.22000000	-226.612961	1426.471802	-41.519535	-269.434418	1432.927124	-388.331543	-274.535828	1469.599243	-196.411697	-150.753510	1343.416016	-214.629395	-244.975876	1153.604614	122.991821	-280.131195	1131.335205	-512.683167	-134.940094	923.186707	180.751060	-140.895870	915.878632	-562.708649	-194.214005	1010.751648	-61.311504	-177.514221	1018.841309	-341.910217	-341.048065	1013.825562	-163.668961	-348.770874	1006.837402	-252.271927	-344.909470	1010.331482	-207.970444	-376.053589	1238.345459	-210.196762	-136.444397	1199.298828	-218.961166	-242.473328	680.112732	2.198262	-262.881104	471.147247	-59.993988	-309.815125	313.099640	-16.581793	-316.370697	76.300346	-88.769859	-355.481750	52.457214	-143.394333	-167.569977	36.623344	-81.750336	-230.874298	653.934753	-412.546143	-241.989639	462.763123	-357.188202	-257.225464	316.561615	-398.390625	-280.141876	74.289909	-318.993683	-325.852295	62.378086	-276.936554	-138.163116	38.078419	-294.583099
124	1.23000000	-226.525864	1426.376343	-41.582039	-269.436310	1432.932251	-388.329315	-274.455322	1469.607422	-196.385880	-150.755569	1343.429321	-214.587753	-244.811111	1153.591919	122.781281	-280.138092	1131.339233	-512.699951	-135.003628	923.143158	180.748474	-140.968105	915.899811	-562.830139	-194.224152	1010.738831	-61.336185	-177.626968	1018.855164	-341.947784	-341.111298	1013.824524	-163.617584	-348.796936	1006.840149	-252.144730	-344.954117	1010.332336	-207.881157	-376.002625	1238.290771	-210.259613	-136.443008	1199.292847	-218.913177	-242.496094	680.136963	2.237438	-262.896973	471.165771	-59.969482	-309.842255	313.064484	-16.562267	-316.335999	76.300941	-88.872620	-355.484619	52.455551	-143.424164	-167.557877	36.607224	-81.772514	-230.868668	653.901550	-412.566132	-241.987686	462.766846	-357.154938	-257.263367	316.521515	-398.429077	-279.824280	73.964508	-319.274933	-325.999176	62.480274	-276.966980	-138.177643	38.157619	-294.633423
125	1.24000000	-226.565704	1426.503784	-41.479065	-269.428284	1432.912598	-388.351013	-274.462677	1469.601562	-196.353165	-150.814362	1343.427856	-214.695267	-244.724503	1153.591431	122.698036	-280.073395	1131.343628	-512.726624	-135.035721	923.058167	180.603348	-140.875851	915.935638	-562.738556	-194.215759	1010.739197	-61.324528	-177.651688	1018.836487	-341.930817	-341.110809	1013.809937	-163.621384	-348.849213	1006.847412	-252.216888	-344.980011	1010.328674	-207.919136	-376.021942	1238.374512	-210.244537	-136.436508	1199.287598	-218.965363	-242.387054	680.118042	2.258434	-262.882080	471.148865	-60.028259	-309.794037	313.124512	-16.627588	-316.241882	76.335632	-88.941635	-355.484467	52.355770	-143.458588	-167.572449	36.665115	-81.726074	-230.882126	653.869080	-412.555725	-241.991608	462.711853	-357.196838	-257.277802	316.513916	-398.418121	-280.014709	74.100975	-319.099457	-325.986816	62.429646	-276.887787	-138.171555	38.001495	-294.659088
126	1.25000000	-226.561142	1426.487793	-41.554062	-269.408997	1432.896118	-388.381775	-274.439270	1469.578735	-196.399979	-150.821274	1343.422241	-214.683167	-244.826218	1153.504761	122.675529	-280.067993	1131.344238	-512.747375	-135.110268	923.039612	180.601578	-140.903030	915.956268	-562.904358	-194.310287	1010.703308	-61.371143	-177.516037	1018.911499	-341.885681	-341.112549	1013.820068	-163.638763	-348.849854	1006.947083	-252.143951	-344.981201	1010.383575	-207.891357	-376.057678	1238.360107	-210.192291	-136.471390	1199.212769	-218.995636	-242.455719	680.125366	2.236300	-262.871765	471.136719	-59.997353	-309.823608	313.116943	-16.593077	-316.290527	76.302513	-88.911606	-355.476807	52.342438	-143.462677	-167.606262	36.649757	-81.705208	-230.886551	653.864014	-412.550049	-241.961960	462.770569	-357.146240	-257.219025	316.573975	-398.418671	-280.152740	74.278786	-319.025085	-325.997101	62.466892	-276.971375	-138.165146	38.014591	-294.583160
127	1.26000000	-226.568604	1426.468384	-41.504253	-269.479126	1432.947632	-388.389252	-274.457153	1469.607422	-196.379150	-150.816513	1343.430664	-214.651352	-244.891388	1153.517334	122.709702	-280.064484	1131.359863	-512.750793	-135.121372	922.934601	180.492851	-140.899418	915.969269	-562.958557	-194.372086	1010.693481	-61.342834	-177.658325	1018.876953	-341.871002	-341.104218	1013.850342	-163.427399	-348.877838	1006.825806	-252.174240	-344.991028	1010.338074	-207.800819	-376.050537	1238.429199	-210.208069	-136.470337	1199.207275	-218.973877	-242.630722	680.137024	2.342434	-262.928680	471.175385	-59.967838	-309.826385	313.039490	-16.579502	-316.253265	76.273407	-88.959793	-355.513611	52.257912	-143.427567	-167.577225	36.667492	-81.733398	-230.941132	653.942139	-412.526306	-241.961151	462.755188	-357.181732	-257.177094	316.458618	-398.400482	-280.138214	74.279732	-318.983032	-326.009857	62.497135	-276.971954	-138.182816	38.023445	-294.537659
128	1.27000000	-226.515808	1426.401733	-41.600582	-269.435303	1432.919189	-388.330109	-274.454285	1469.626587	-196.384613	-150.880920	1343.418335	-214.636398	-244.899048	1153.522705	122.718002	-280.099152	1131.365601	-512.772766	-135.215881	922.908081	180.462555	-140.920609	915.983002	-563.047607	-194.459045	1010.790649	-61.214607	-177.690674	1018.881042	-341.881592	-341.125519	1013.770813	-163.576996	-348.871246	1006.916992	-252.072952	-344.998383	1010.343903	-207.824974	-376.048157	1238.433838	-210.212189	-136.585938	1199.221069	-219.005814	-242.584412	680.199219	2.283180	-262.878021	471.109528	-59.951881	-309.837250	313.130035	-16.561071	-316.229370	76.299774	-88.972115	-355.514526	52.273170	-143.418701	-167.554306	36.669563	-81.752876	-230.971741	653.936951	-412.443146	-241.946457	462.795837	-357.114929	-257.179077	316.478058	-398.343719	-279.291718	73.489288	-318.950073	-325.879028	62.361446	-276.910492	-138.130188	38.013947	-294.587830
